<?xml version="1.0" encoding="utf-8"?>
<!-- Generator: Adobe Illustrator 19.1.0, SVG Export Plug-In . SVG Version: 6.00 Build 0)  -->
<svg version="1.1" id="Layer_1" xmlns="http://www.w3.org/2000/svg" xmlns:xlink="http://www.w3.org/1999/xlink" x="0px" y="0px"
	 viewBox="0 0 640 1136" style="enable-background:new 0 0 640 1136;" xml:space="preserve">
<style type="text/css">
	.st0{fill:#FFFFFF;stroke:#E8D1D8;stroke-miterlimit:10;}
</style>
<g>
	<g>
		<g>
			<ellipse class="st0" cx="290" cy="558.9" rx="2.6" ry="2.6"/>
			<path class="st0" d="M290,557.1c1,0,1.8,0.8,1.8,1.8c0,1-0.8,1.8-1.8,1.8c-1,0-1.8-0.8-1.8-1.8C288.1,557.9,289,557.1,290,557.1
				 M290,555.4c-1.9,0-3.4,1.5-3.4,3.4c0,1.9,1.5,3.4,3.4,3.4c1.9,0,3.4-1.5,3.4-3.4C293.4,557,291.8,555.4,290,555.4L290,555.4z"/>
		</g>
		<g>
			<ellipse class="st0" cx="343.6" cy="558.9" rx="2.6" ry="2.6"/>
			<path class="st0" d="M343.6,557.1c1,0,1.8,0.8,1.8,1.8c0,1-0.8,1.8-1.8,1.8c-1,0-1.8-0.8-1.8-1.8
				C341.8,557.9,342.6,557.1,343.6,557.1 M343.6,555.4c-1.9,0-3.4,1.5-3.4,3.4c0,1.9,1.5,3.4,3.4,3.4c1.9,0,3.4-1.5,3.4-3.4
				C347,557,345.5,555.4,343.6,555.4L343.6,555.4z"/>
		</g>
	</g>
	<g>
		<path class="st0" d="M393.3,509.4c0,0,2.4-4,9.4-2c-4.2-8.3-39.4-34.4-57.1-37.7c-0.6-1.7,4.1-2,2.3-2.7c-5.8-2.2-22-0.9-22-0.9
			s-3.3-5.5-7.1-6.1c3.2,3.2-3.3,5.3-3.3,5.3s-6.8-3.5-12.9-3.7c8,2.7-1,4.8-1,4.8s-42.3,2.1-64.5,38c6.4,1,4.3,5.7,4.3,5.7
			s-11.9,16.1-12.6,23.7c1-0.2,3.5-2.9,4.1-1.8c-8.8,15.9-4.8,64,1.7,75c2-0.6,4.9-1.6,6.7-2.8c2.3,18.5,14,39.6,17.2,41.5
			c0.4-4.3,10.8-5.3,12.2-2.8c0.7,1.3,16,17.6,23.2,18.4c0.2-4,8.2-5,8.2-5s12.3,8.6,18.3,19.5c9-13.6,22.5-21.5,22.5-21.5
			s7,0.6,7.6,4.2c19.2-7.7,31.4-30.4,31.4-30.4s4.1-0.7,5.9,3.9c8.3-5.3,10.8-24.8,10.8-24.8s2.3,1.5,7.9,4.8
			C417.6,531.3,393.3,509.4,393.3,509.4z M331.6,571.3c-0.1,4.9-2.4,6.4-13.8,6.4c-11.4,0-14-1.6-13.9-7.4
			c-10.9,0.7-23.1,2.6-37.8,6.1c0.1-7.7-2.5-15.8,0.7-24.1c4.1-10.5,18.6-23.1,18.4-15c8.4-1.5,17.2-17.6,17.2-17.6s6.1,4,7.6,8.6
			c11.1-6.7,16.8-21.4,16.8-21.4s8.5,16.7,22.8,23.7c0.6-3.1,1.9-6.1,1.9-6.1c27.3,12.4,10.3,38,22.8,57.1
			C358.5,577,345.4,573.2,331.6,571.3z"/>
	</g>
</g>
</svg>
